<svg width="24" height="24" viewBox="0 0 24 24" fill="none" xmlns="http://www.w3.org/2000/svg">
<path d="M20.7861 11.1466C20.7551 11.1396 16.6271 10.3096 12.0001 10.3096C7.37314 10.3096 3.24514 11.1396 3.20414 11.1476C3.02714 11.1856 2.84014 11.2086 2.65014 11.2166L2.57914 20.5906C2.57514 21.0466 2.88214 21.4476 3.32214 21.5656C3.48814 21.6096 7.43814 22.6446 12.0001 22.6446C16.5621 22.6446 20.5121 21.6096 20.6781 21.5656C21.1181 21.4486 21.4251 21.0466 21.4211 20.5906L21.3501 11.2176C21.1611 11.2096 20.9721 11.1856 20.7861 11.1476V11.1466Z" fill="black"/>
<path d="M21.8035 6.25142C21.6365 6.21742 18.0225 5.47842 13.4995 5.33442V4.35742H14.3605C15.1885 4.35742 15.8605 3.68542 15.8605 2.85742C15.8605 2.02942 15.1885 1.35742 14.3605 1.35742H9.63753C8.80953 1.35742 8.13753 2.02942 8.13753 2.85742C8.13753 3.68542 8.80953 4.35742 9.63753 4.35742H10.4985V5.33442C5.97653 5.47842 2.36253 6.21742 2.19453 6.25142C1.38253 6.41942 0.861532 7.21342 1.02953 8.02342C1.17553 8.73242 1.80053 9.21942 2.49653 9.21942C2.59853 9.21942 2.69953 9.20942 2.80253 9.18842C2.84553 9.17942 7.10453 8.30942 11.9985 8.30942C16.8925 8.30942 21.1515 9.17942 21.1945 9.18842C22.0065 9.35842 22.7995 8.83442 22.9665 8.02342C23.1345 7.21142 22.6125 6.41942 21.8015 6.25142H21.8035Z" fill="black"/>
</svg>
